<svg xmlns="http://www.w3.org/2000/svg" version="1.1" xmlns:xlink="http://www.w3.org/1999/xlink" xmlns:svgjs="http://svgjs.dev/svgjs" width="128" height="128" viewBox="0 0 128 128"><g transform="matrix(0.8046875,0,0,0.8046875,11.078321175827448,9.909778540663524)"><svg viewBox="0 0 96 98" data-background-color="#ffffff" preserveAspectRatio="xMidYMid meet" height="130" width="128" xmlns="http://www.w3.org/2000/svg" xmlns:xlink="http://www.w3.org/1999/xlink"><g id="tight-bounds" transform="matrix(1,0,0,1,1.5495485963455167,1.7538708067433788)"><svg viewBox="0 0 93.88964437849755 95.481" height="95.481" width="93.88964437849755"><g><svg viewBox="0 0 93.88964437849755 95.481" height="95.481" width="93.88964437849755"><g><svg viewBox="0 0 93.88964437849755 95.481" height="95.481" width="93.88964437849755"><g id="textblocktransform"><svg viewBox="0 0 93.88964437849755 95.481" height="95.481" width="93.88964437849755" id="textblock"><g><svg viewBox="0 0 93.88964437849755 95.481" height="95.481" width="93.88964437849755"><g><svg viewBox="0 0 93.88964437849755 95.481" height="95.481" width="93.88964437849755"><g><svg xmlns="http://www.w3.org/2000/svg" viewBox="1.9999999734200498 2 58.9997864803296 59.99978645374965" x="0" y="0" height="95.481" width="93.88964437849755" class="icon-icon-0" data-fill-palette-color="accent" id="icon-0"><g fill="#a437db" data-fill-palette-color="accent"><path d="M5.751 43.842l0.5-1.936A3 3 0 0 1 4 39V7A3 3 0 0 1 7 4H47a3 3 0 0 1 3 3V8h2V7a5.006 5.006 0 0 0-5-5H7A5.006 5.006 0 0 0 2 7V39A5 5 0 0 0 5.751 43.842Z" fill="#a437db" data-fill-palette-color="accent"></path><rect x="6" y="6" width="2" height="2" fill="#a437db" data-fill-palette-color="accent"></rect><rect x="10" y="6" width="2" height="2" fill="#a437db" data-fill-palette-color="accent"></rect><rect x="14" y="6" width="2" height="2" fill="#a437db" data-fill-palette-color="accent"></rect><path d="M52.41 45H54V43H52.84A13.474 13.474 0 0 0 52 35.834V26H50v6.368a14.077 14.077 0 0 0-2-2.076V22H46v6.894a13.9 13.9 0 0 0-2-0.955V18H42v9.332a13.857 13.857 0 0 0-2-0.281V20H38v7.051a13.857 13.857 0 0 0-2 0.281V24H34v3.939a13.9 13.9 0 0 0-2 0.955V23H30v7.292a14.077 14.077 0 0 0-2 2.076V25H26V35.834A13.474 13.474 0 0 0 25.16 43H12v2H25.59a13.971 13.971 0 0 0 21.444 7.448l9.259 9.259a1 1 0 0 0 1.414 0l3-3a1 1 0 0 0 0-1.414l-9.485-9.485A13.831 13.831 0 0 0 52.41 45ZM27 41A12 12 0 1 1 39 53 12.013 12.013 0 0 1 27 41ZM58.586 58L57 59.586l-8.412-8.412a14.168 14.168 0 0 0 1.505-1.667Z" fill="#a437db" data-fill-palette-color="accent"></path><path d="M39 31A10 10 0 1 0 49 41 10.011 10.011 0 0 0 39 31Zm-5 3.765V41h2V33.589a7.965 7.965 0 0 1 2-0.52V41h2V33.069a7.965 7.965 0 0 1 2 0.52V41h2V34.765A7.927 7.927 0 0 1 46.737 43H31.263A7.927 7.927 0 0 1 34 34.765ZM39 49a8 8 0 0 1-6.918-4H45.918A8 8 0 0 1 39 49Z" fill="#a437db" data-fill-palette-color="accent"></path><path d="M8 15V47a5.006 5.006 0 0 0 5 5H26V50H13a3 3 0 0 1-3-3V15a3 3 0 0 1 3-3H53a3 3 0 0 1 3 3V47a3 3 0 0 1-0.75 1.984l1.5 1.323A4.994 4.994 0 0 0 58 47V15a5.006 5.006 0 0 0-5-5H13A5.006 5.006 0 0 0 8 15Z" fill="#a437db" data-fill-palette-color="accent"></path><rect x="12" y="14" width="2" height="2" fill="#a437db" data-fill-palette-color="accent"></rect><rect x="16" y="14" width="2" height="2" fill="#a437db" data-fill-palette-color="accent"></rect><rect x="20" y="14" width="2" height="2" fill="#a437db" data-fill-palette-color="accent"></rect><rect x="14" y="35" width="2" height="6" fill="#a437db" data-fill-palette-color="accent"></rect><rect x="18" y="29" width="2" height="12" fill="#a437db" data-fill-palette-color="accent"></rect><rect x="22" y="32" width="2" height="9" fill="#a437db" data-fill-palette-color="accent"></rect></g></svg></g></svg></g></svg></g></svg></g></svg></g></svg></g><defs></defs></svg><rect width="93.88964437849755" height="95.481" fill="none" stroke="none" visibility="hidden"></rect></g></svg></g></svg>