<svg xmlns="http://www.w3.org/2000/svg" version="1.1" xmlns:xlink="http://www.w3.org/1999/xlink" xmlns:svgjs="http://svgjs.dev/svgjs" width="2000" height="722" viewBox="0 0 2000 722"><g transform="matrix(1,0,0,1,11.287300878913925,13.701544506355049)"><svg viewBox="0 0 396 143" data-background-color="#ffffff" preserveAspectRatio="xMidYMid meet" height="722" width="2000" xmlns="http://www.w3.org/2000/svg" xmlns:xlink="http://www.w3.org/1999/xlink"><g id="tight-bounds" transform="matrix(1,0,0,1,0.2400000000000091,-0.23625347040459133)"><svg viewBox="0 0 395.52 143.47250694080918" height="143.47250694080918" width="395.52"><g><svg viewBox="0 0 715.5498802836378 259.56142588362" height="143.47250694080918" width="395.52"><g><rect width="10.391056463725715" height="138.26929543754673" x="282.4371053284835" y="60.64606522303664" fill="#7a26c1" opacity="1" stroke-width="0" stroke="transparent" fill-opacity="1" class="rect-qz-0" data-fill-palette-color="primary" rx="1%" id="qz-0" data-palette-color="#7a26c1"></rect></g><g transform="matrix(1,0,0,1,320.02988028363774,72.16850650949887)"><svg viewBox="0 0 395.52 115.22441286462228" height="115.22441286462228" width="395.52"><g id="textblocktransform"><svg viewBox="0 0 395.52 115.22441286462228" height="115.22441286462228" width="395.52" id="textblock"><g><svg viewBox="0 0 395.52 115.22441286462228" height="115.22441286462228" width="395.52"><g transform="matrix(1,0,0,1,0,0)"><svg width="395.52" viewBox="1.95 -38.5 133.69 38.95" height="115.22441286462228" data-palette-color="#7a26c1"><path d="M1.95-34.75L26.2-34.75 26.2-30.1 16.95-30.1 16.95 0 11.25 0 11.25-30.1 1.95-30.1 1.95-34.75ZM46.2-28Q49.35-28 51.82-26.65 54.3-25.3 55.72-22.65 57.15-20 57.15-16.25L57.15-16.25 57.15 0 51.5 0 51.5-15.4Q51.5-19.1 49.65-21.08 47.8-23.05 44.6-23.05L44.6-23.05Q41.4-23.05 39.52-21.08 37.65-19.1 37.65-15.4L37.65-15.4 37.65 0 31.95 0 31.95-37 37.65-37 37.65-24.35Q39.1-26.1 41.32-27.05 43.55-28 46.2-28L46.2-28ZM89.65-14.45Q89.65-12.9 89.45-11.65L89.45-11.65 68.4-11.65Q68.65-8.35 70.85-6.35 73.05-4.35 76.25-4.35L76.25-4.35Q80.85-4.35 82.75-8.2L82.75-8.2 88.9-8.2Q87.65-4.4 84.37-1.98 81.1 0.45 76.25 0.45L76.25 0.45Q72.3 0.45 69.17-1.33 66.05-3.1 64.27-6.33 62.5-9.55 62.5-13.8L62.5-13.8Q62.5-18.05 64.22-21.28 65.95-24.5 69.07-26.25 72.2-28 76.25-28L76.25-28Q80.15-28 83.2-26.3 86.25-24.6 87.95-21.53 89.65-18.45 89.65-14.45L89.65-14.45ZM68.45-16.25L83.7-16.25Q83.65-19.4 81.45-21.3 79.25-23.2 76-23.2L76-23.2Q73.05-23.2 70.95-21.33 68.85-19.45 68.45-16.25L68.45-16.25ZM93.34-13.9Q93.34-18.05 95.07-21.25 96.79-24.45 99.77-26.23 102.74-28 106.34-28L106.34-28Q109.59-28 112.02-26.73 114.44-25.45 115.89-23.55L115.89-23.55 115.89-27.55 121.64-27.55 121.64 0 115.89 0 115.89-4.1Q114.44-2.15 111.94-0.85 109.44 0.45 106.24 0.45L106.24 0.45Q102.69 0.45 99.74-1.38 96.79-3.2 95.07-6.48 93.34-9.75 93.34-13.9L93.34-13.9ZM115.89-13.8Q115.89-16.65 114.72-18.75 113.54-20.85 111.64-21.95 109.74-23.05 107.54-23.05L107.54-23.05Q105.34-23.05 103.44-21.98 101.54-20.9 100.37-18.82 99.19-16.75 99.19-13.9L99.19-13.9Q99.19-11.05 100.37-8.9 101.54-6.75 103.47-5.63 105.39-4.5 107.54-4.5L107.54-4.5Q109.74-4.5 111.64-5.6 113.54-6.7 114.72-8.83 115.89-10.95 115.89-13.8L115.89-13.8ZM132.04-31.2Q130.49-31.2 129.44-32.25 128.39-33.3 128.39-34.85L128.39-34.85Q128.39-36.4 129.44-37.45 130.49-38.5 132.04-38.5L132.04-38.5Q133.54-38.5 134.59-37.45 135.64-36.4 135.64-34.85L135.64-34.85Q135.64-33.3 134.59-32.25 133.54-31.2 132.04-31.2L132.04-31.2ZM129.14-27.55L134.84-27.55 134.84 0 129.14 0 129.14-27.55Z" opacity="1" transform="matrix(1,0,0,1,0,0)" fill="#7a26c1" class="wordmark-text-0" data-fill-palette-color="primary" id="text-0"></path></svg></g></svg></g></svg></g></svg></g><g><svg viewBox="0 0 255.2353868370549 259.56142588362" height="259.56142588362" width="255.2353868370549"><g><svg xmlns="http://www.w3.org/2000/svg" viewBox="1.9999999734200498 2 58.9997864803296 59.99978645374965" x="0" y="0" height="259.56142588362" width="255.2353868370549" class="icon-icon-0" data-fill-palette-color="accent" id="icon-0"><g fill="#a437db" data-fill-palette-color="accent"><path d="M5.751 43.842l0.5-1.936A3 3 0 0 1 4 39V7A3 3 0 0 1 7 4H47a3 3 0 0 1 3 3V8h2V7a5.006 5.006 0 0 0-5-5H7A5.006 5.006 0 0 0 2 7V39A5 5 0 0 0 5.751 43.842Z" fill="#a437db" data-fill-palette-color="accent"></path><rect x="6" y="6" width="2" height="2" fill="#a437db" data-fill-palette-color="accent"></rect><rect x="10" y="6" width="2" height="2" fill="#a437db" data-fill-palette-color="accent"></rect><rect x="14" y="6" width="2" height="2" fill="#a437db" data-fill-palette-color="accent"></rect><path d="M52.41 45H54V43H52.84A13.474 13.474 0 0 0 52 35.834V26H50v6.368a14.077 14.077 0 0 0-2-2.076V22H46v6.894a13.9 13.9 0 0 0-2-0.955V18H42v9.332a13.857 13.857 0 0 0-2-0.281V20H38v7.051a13.857 13.857 0 0 0-2 0.281V24H34v3.939a13.9 13.9 0 0 0-2 0.955V23H30v7.292a14.077 14.077 0 0 0-2 2.076V25H26V35.834A13.474 13.474 0 0 0 25.16 43H12v2H25.59a13.971 13.971 0 0 0 21.444 7.448l9.259 9.259a1 1 0 0 0 1.414 0l3-3a1 1 0 0 0 0-1.414l-9.485-9.485A13.831 13.831 0 0 0 52.41 45ZM27 41A12 12 0 1 1 39 53 12.013 12.013 0 0 1 27 41ZM58.586 58L57 59.586l-8.412-8.412a14.168 14.168 0 0 0 1.505-1.667Z" fill="#a437db" data-fill-palette-color="accent"></path><path d="M39 31A10 10 0 1 0 49 41 10.011 10.011 0 0 0 39 31Zm-5 3.765V41h2V33.589a7.965 7.965 0 0 1 2-0.52V41h2V33.069a7.965 7.965 0 0 1 2 0.52V41h2V34.765A7.927 7.927 0 0 1 46.737 43H31.263A7.927 7.927 0 0 1 34 34.765ZM39 49a8 8 0 0 1-6.918-4H45.918A8 8 0 0 1 39 49Z" fill="#a437db" data-fill-palette-color="accent"></path><path d="M8 15V47a5.006 5.006 0 0 0 5 5H26V50H13a3 3 0 0 1-3-3V15a3 3 0 0 1 3-3H53a3 3 0 0 1 3 3V47a3 3 0 0 1-0.75 1.984l1.5 1.323A4.994 4.994 0 0 0 58 47V15a5.006 5.006 0 0 0-5-5H13A5.006 5.006 0 0 0 8 15Z" fill="#a437db" data-fill-palette-color="accent"></path><rect x="12" y="14" width="2" height="2" fill="#a437db" data-fill-palette-color="accent"></rect><rect x="16" y="14" width="2" height="2" fill="#a437db" data-fill-palette-color="accent"></rect><rect x="20" y="14" width="2" height="2" fill="#a437db" data-fill-palette-color="accent"></rect><rect x="14" y="35" width="2" height="6" fill="#a437db" data-fill-palette-color="accent"></rect><rect x="18" y="29" width="2" height="12" fill="#a437db" data-fill-palette-color="accent"></rect><rect x="22" y="32" width="2" height="9" fill="#a437db" data-fill-palette-color="accent"></rect></g></svg></g></svg></g></svg></g><defs></defs></svg><rect width="395.52" height="143.47250694080918" fill="none" stroke="none" visibility="hidden"></rect></g></svg></g></svg>